<svg xmlns="http://www.w3.org/2000/svg" viewBox="0 0 201.4 228.75"><defs><style>.cls-1{fill:#231f20;}.cls-2{fill:#8dc63f;}.cls-3{fill:#59595b;}</style></defs><g id="Layer_2" data-name="Layer 2"><g id="Layer_2-2" data-name="Layer 2"><polygon class="cls-1" points="24.19 51.69 24.19 136.41 51.1 136.41 51.4 66.74 148.44 65.93 148.44 144.76 139.44 144.76 139.44 75 60.35 75.67 60.06 145.41 15.19 145.41 15.19 56.53 4.27 62.41 0 54.48 101.26 0 143.7 23.09 143.7 16.3 161.7 16.3 161.7 32.89 201.4 54.49 197.1 62.4 101.24 10.23 24.19 51.69"/><rect class="cls-2" x="63.95" y="80.3" width="71.7" height="6.91"/><rect class="cls-2" x="63.95" y="91.24" width="71.7" height="6.91"/><rect class="cls-2" x="63.95" y="102.18" width="71.7" height="6.91"/><rect class="cls-2" x="63.95" y="113.13" width="71.7" height="6.91"/><rect class="cls-2" x="63.95" y="124.07" width="71.7" height="6.91"/><rect class="cls-2" x="63.95" y="135.01" width="71.7" height="6.91"/><path class="cls-3" d="M177.19,60.13v82.55q-2.35,5.76-5.14,11.17H15.15C32.42,185.87,62.23,212.78,99,228l1.78.74,1.76-.78c41-18.15,68.24-45.21,83.36-82.73l.32-.81V65Z"/></g></g></svg>